#!OML:ASF I:\Actors\actors\Patient Classification 1\Patient 1\Session 1\Subject1.ASF
:FULLY-SPECIFIED
:DEGREES
742
root 0.0405051 18.5703 8.28553 6.98898 20.3453 -10.989
lowerback 0.797058 4.69364 2.6702
upperback -3.66178 6.39344 0.549044
thorax -3.99464 3.11654 -1.17806
lowerneck -0.218328 -3.87349 -6.29592
upperneck 19.8455 -7.36268 15.027
head 6.78799 -2.87899 5.54248
rclavicle 2.24627e-014 -2.62396e-014
rhumerus -33.8064 26.1325 -84.1729
rradius 145.894
rwrist -42.384
rhand 66.4562 -68.9107
rfingers 7.12502
rthumb 74.6858 -12.7977
lclavicle 2.24627e-014 -2.62396e-014
lhumerus -33.4686 -29.5642 88.7374
lradius 144.184
lwrist 51.9452
lhand 77.878 -9.06028
lfingers 7.12502
lthumb 69.2783 -263.031
rfemur 0 0 0
rtibia 0
rfoot 0 0
rtoes 0
lfemur -25.8668 -44.446 6.59755
ltibia 25.3711
lfoot -25.5115 37.7277
ltoes -60.408
743
root 0.0371809 18.5736 8.26699 7.04343 20.7028 -10.8493
lowerback 1.38963 4.66225 2.48802
upperback -3.60148 6.35944 0.437048
thorax -4.27415 3.09731 -1.24352
lowerneck 0.119606 -4.15783 -6.85987
upperneck 19.1758 -7.80595 15.8773
head 6.61556 -3.11541 5.89186
rclavicle -5.74488e-014 -3.97569e-015
rhumerus -33.6309 28.7315 -80.1374
rradius 145.9
rwrist -42.812
rhand 65.634 -66.0996
rfingers 7.12502
rthumb 74.8233 -12.9612
lclavicle -5.74488e-014 -3.97569e-015
lhumerus -32.2879 -32.0062 84.5597
lradius 144.144
lwrist 51.9838
lhand 76.7414 -10.2552
lfingers 7.12502
lthumb 70.0355 -264.123
rfemur 0 0 0
rtibia 0
rfoot 0 0
rtoes 0
lfemur -26.1671 -44.4078 6.63558
ltibia 25.3055
lfoot -25.1305 37.5028
ltoes -60.4635
744
root 0.0364824 18.5764 8.25393 7.04195 21.1284 -10.6979
lowerback 1.94866 4.64427 2.33113
upperback -3.48698 6.33557 0.260097
thorax -4.4681 3.0828 -1.38295
lowerneck 0.472516 -4.50576 -7.40221
upperneck 18.3889 -8.35422 16.9281
head 6.4329 -3.39645 6.29857
rclavicle -9.34288e-015 -3.97569e-015
rhumerus -34.128 29.7768 -77.2706
rradius 145.841
rwrist -44.0878
rhand 65.7924 -65.6074
rfingers 7.12502
rthumb 74.8001 -11.892
lclavicle -9.34288e-015 -3.97569e-015
lhumerus -31.9772 -34.5558 81.4613
lradius 144.01
lwrist 52.5502
lhand 74.8653 -10.9758
lfingers 7.12502
lthumb 71.2051 -267.576
rfemur 0 0 0
rtibia 0
rfoot 0 0
rtoes 0
lfemur -26.3634 -44.2387 6.54301
ltibia 25.2632
lfoot -24.6501 37.0805
ltoes -60.5033
745
root 0.0427445 18.579 8.25033 7.0398 21.5974 -10.6724
lowerback 2.38192 4.58514 2.27599
upperback -3.34401 6.25626 0.121625
thorax -4.5571 3.04031 -1.52216
lowerneck 0.330994 -4.93656 -7.77975
upperneck 17.997 -9.0097 17.6563
head 6.47213 -3.70297 6.55668
rclavicle -1.10127e-013 -2.14687e-014
rhumerus -35.3146 29.2989 -76.0097
rradius 145.747
rwrist -45.425
rhand 65.9765 -67.1422
rfingers 7.12502
rthumb 74.7711 -12.7583
lclavicle -1.10127e-013 -2.14687e-014
lhumerus -32.4666 -36.7775 79.5214
lradius 143.862
lwrist 53.865
lhand 71.915 -10.7816
lfingers 7.12502
lthumb 72.7993 -444.574
rfemur 0 0 0
rtibia 0
rfoot 0 0
rtoes 0
lfemur -26.6122 -44.0859 6.58848
ltibia 25.2845
lfoot -24.0731 36.6932
ltoes -60.6157
746
root 0.0573861 18.5812 8.25361 7.11735 22.1124 -10.7934
lowerback 2.63562 4.47887 2.40302
upperback -3.22374 6.12212 0.0760039
thorax -4.56226 2.96817 -1.64709
lowerneck -0.0480443 -5.3882 -8.31959
upperneck 17.7681 -9.67839 18.23
head 6.61796 -4.01876 6.78482
rclavicle -2.54444e-014 -7.95139e-015
rhumerus -36.5982 28.5568 -75.415
rradius 145.761
rwrist -46.2631
rhand 65.707 -67.3237
rfingers 7.12502
rthumb 74.8128 -13.9194
lclavicle -2.54444e-014 -7.95139e-015
lhumerus -33.4944 -38.5923 78.6348
lradius 143.754
lwrist 55.4647
lhand 67.9745 -9.99893
lfingers 7.12502
lthumb 74.3239 -431.433
rfemur 0 0 0
rtibia 0
rfoot 0 0
rtoes 0
lfemur -27.0649 -43.9502 6.89725
ltibia 25.3707
lfoot -23.5316 36.3644
ltoes -60.8088
747
root 0.079881 18.5828 8.25959 7.29455 22.6144 -10.9822
lowerback 2.64601 4.35262 2.59464
upperback -3.11802 5.96293 0.139763
thorax -4.45205 2.88645 -1.67293
lowerneck -0.126489 -5.75146 -9.01356
upperneck 17.2118 -10.1741 18.7908
head 6.5941 -4.29122 7.04634
rclavicle -1.23246e-014 -1.19271e-014
rhumerus -37.5376 26.8255 -75.9207
rradius 146.113
rwrist -46.2358
rhand 65.6753 -67.2065
rfingers 7.12502
rthumb 74.8174 -13.9177
lclavicle -1.23246e-014 -1.19271e-014
lhumerus -35.4155 -38.9452 79.9529
lradius 143.677
lwrist 56.1078
lhand 65.8394 -9.77361
lfingers 7.12502
lthumb 74.7929 -423.66
rfemur 0 0 0
rtibia 0
rfoot 0 0
rtoes 0
lfemur -27.7098 -43.8936 7.40379
ltibia 25.4969
lfoot -23.2298 36.1076
ltoes -60.9393
748
root 0.105648 18.5834 8.26915 7.55301 22.9994 -11.1179
lowerback 2.35287 4.07601 2.37153
upperback -2.96127 5.58353 0.471607
thorax -4.19273 2.71706 -1.15868
lowerneck -0.0891155 -5.84792 -9.59553
upperneck 16.5688 -10.2056 18.8197
head 6.42025 -4.37517 7.13915
rclavicle -1.75924e-014 5.56597e-015
rhumerus -38.0819 25.5629 -77.0479
rradius 146.516
rwrist -45.8655
rhand 64.7371 -64.5706
rfingers 7.12502
rthumb 74.9247 -14.7295
lclavicle -1.75924e-014 5.56597e-015
lhumerus -38.1462 -37.1199 83.3172
lradius 143.67
lwrist 55.6791
lhand 65.2421 -9.61726
lfingers 7.12502
lthumb 74.8739 -421.32
rfemur 0 0 0
rtibia 0
rfoot 0 0
rtoes 0
lfemur -28.4192 -44.0695 7.96372
ltibia 25.6198
lfoot -23.2734 36.084
ltoes -60.9329
749
root 0.130431 18.5825 8.28244 7.85468 23.2457 -11.1357
lowerback 2.62926 4.11856 2.87737
upperback -3.21067 5.66646 0.140565
thorax -4.52559 2.72764 -1.81405
lowerneck 0.214598 -6.23248 -9.82374
upperneck 16.0961 -10.7384 19.162
head 6.33419 -4.66288 7.2515
rclavicle 3.53837e-014 -7.95139e-015
rhumerus -39.6306 22.2183 -80.3262
rradius 146.832
rwrist -45.0294
rhand 64.2306 -63.408
rfingers 7.12502
rthumb 74.9592 -15.4455
lclavicle 3.53837e-014 -7.95139e-015
lhumerus -41.1102 -35.6611 86.9889
lradius 143.661
lwrist 55.3457
lhand 64.6563 -9.71531
lfingers 7.12502
lthumb 74.9313 -419.257
rfemur 0 0 0
rtibia 0
rfoot 0 0
rtoes 0
lfemur -29.0123 -44.204 8.35113
ltibia 25.7074
lfoot -23.3404 36.0937
ltoes -60.9098
750
root 0.154639 18.5802 8.29804 8.1001 23.3613 -11.0264
lowerback 2.74417 4.09896 2.88498
upperback -3.23013 5.64285 0.0851547
thorax -4.60593 2.71255 -1.88426
lowerneck 0.262174 -6.55491 -10.3062
upperneck 15.5514 -11.1502 19.4731
head 6.26824 -4.90091 7.39733
rclavicle -6.30147e-014 -3.97569e-015
rhumerus -40.4421 17.9752 -83.9997
rradius 146.872
rwrist -44.5468
rhand 65.4143 -65.7582
rfingers 7.12502
rthumb 74.8529 -13.4232
lclavicle -6.30147e-014 -3.97569e-015
lhumerus -43.6499 -32.7221 91.3791
lradius 143.612
lwrist 54.6114
lhand 64.9842 -9.99174
lfingers 7.12502
lthumb 74.9019 -420.746
rfemur 0 0 0
rtibia 0
rfoot 0 0
rtoes 0
lfemur -29.3166 -44.25 8.40062
ltibia 25.7537
lfoot -23.1908 36.1125
ltoes -60.9729
